<svg width="1920" height="1080" viewBox="0 0 1920 1080" fill="none"
    xmlns="http://www.w3.org/2000/svg">
    <path d="M1920 0H0V1080H1920V0Z" fill="#282F39"/>
    <path d="M0 158.63V465.35L324.06 779.61L1261.88 294.39L1357.24 245.05L930.38 170.05L266.57 352.31L0 158.63Z" fill="#1C212B"/>
    <path d="M1920 0V219.38L1742.95 289.98L1638 331.84L1619.46 339.23L1545.93 323.02L1543.9 322.57L1536.92 321.03L1532.63 320.08L1525.97 318.62L1523.64 318.1L1503.07 313.57L1491.31 310.97L1481.49 308.81L1307.97 270.54L1298.61 268.48L1261.88 260.38L1246 256.88L1051.58 214.01L1039.57 211.36L1009 204.62L998.88 202.39L923.41 185.75L452.11 304.92L325.24 337L321.76 337.88L288.44 346.31L266.09 351.96L250.89 355.8L121.52 264.06L0 177.9V0H1920Z" fill="#11141D"/>
</svg>
