<svg width="47" height="46" viewBox="0 0 47 46" fill="none"
    xmlns="http://www.w3.org/2000/svg">
    <path d="M10.2799 24.1599L16.1899 26.1599L29.8999 17.4799C29.9612 17.4408 30.035 17.4262 30.1067 17.439C30.1783 17.4518 30.2425 17.4909 30.2866 17.5488C30.3306 17.6068 30.3513 17.6792 30.3445 17.7516C30.3377 17.824 30.3039 17.8913 30.2499 17.94L19.5299 27.7299L18.9299 33.4899L18.9999 33.57C19.089 33.6544 19.2071 33.7014 19.3299 33.7014C19.4526 33.7014 19.5707 33.6544 19.6599 33.57L23.0799 30.34L28.7299 34.51C28.8868 34.6278 29.0678 34.7097 29.2599 34.75C29.6152 34.8239 29.9854 34.7539 30.2892 34.5551C30.5929 34.3564 30.8054 34.0452 30.8799 33.69L34.7699 15.14C34.808 14.9425 34.7907 14.7382 34.7199 14.5499C34.619 14.2872 34.4186 14.0747 34.1621 13.9587C33.9057 13.8426 33.6139 13.8323 33.3499 13.93L10.2499 22.64C10.1371 22.6783 10.0348 22.7426 9.95144 22.8277C9.86806 22.9128 9.80587 23.0164 9.76987 23.13C9.73395 23.231 9.7187 23.3382 9.72503 23.4452C9.73135 23.5522 9.75913 23.6569 9.80671 23.753C9.85428 23.8491 9.92067 23.9346 10.002 24.0045C10.0832 24.0744 10.1778 24.1273 10.2799 24.1599Z" fill="white"/>
    <path d="M39.5301 7.06C35.799 3.33582 30.8923 1.02033 25.6455 0.507874C20.3988 -0.00458184 15.1367 1.31768 10.7555 4.24951C6.37433 7.18134 3.14502 11.5414 1.61765 16.587C0.0902832 21.6325 0.359324 27.0516 2.37896 31.921C4.39859 36.7905 8.0439 40.8092 12.694 43.2926C17.344 45.776 22.7112 46.5707 27.8814 45.541C33.0515 44.5114 37.7048 41.7212 41.0487 37.6458C44.3925 33.5703 46.2201 28.4617 46.2201 23.19C46.2273 20.1925 45.6397 17.2235 44.4913 14.4547C43.3429 11.6859 41.6567 9.1725 39.5301 7.06ZM23.4101 44.13C19.2686 44.13 15.2201 42.9019 11.7765 40.601C8.33293 38.3 5.64901 35.0297 4.06411 31.2034C2.47921 27.3771 2.06453 23.1668 2.8725 19.1048C3.68048 15.0428 5.67481 11.3117 8.60332 8.38318C11.5318 5.45467 15.263 3.46032 19.325 2.65234C23.3869 1.84437 27.5972 2.25903 31.4235 3.84393C35.2498 5.42883 38.5202 8.11277 40.8211 11.5563C43.122 14.9999 44.3501 19.0485 44.3501 23.19C44.3343 28.7388 42.1231 34.0557 38.1995 37.9793C34.2759 41.9029 28.9589 44.1142 23.4101 44.13Z" fill="white"/>
</svg>
