<svg width="210" height="36" viewBox="0 0 210 36" fill="none" xmlns="http://www.w3.org/2000/svg">
<path d="M18.47 26.12C18.47 24.84 18.02 23.85 17.11 23.17C16.2 22.48 14.57 21.76 12.22 21C9.87 20.24 8 19.49 6.63 18.75C2.89 16.72 1.02 14 1.02 10.57C1.02 8.78999 1.52 7.19999 2.53 5.80999C3.54 4.41999 4.98 3.31999 6.85 2.53999C8.73 1.75999 10.84 1.35999 13.18 1.35999C15.53 1.35999 17.63 1.78999 19.47 2.63999C21.31 3.48999 22.74 4.69999 23.76 6.24999C24.78 7.79999 25.29 9.56999 25.29 11.55H18.5C18.5 10.04 18.02 8.86998 17.07 8.02998C16.12 7.18998 14.78 6.76999 13.06 6.76999C11.4 6.76999 10.11 7.11999 9.19 7.81999C8.27 8.51999 7.81 9.44999 7.81 10.59C7.81 11.66 8.35 12.56 9.43 13.28C10.51 14 12.1 14.68 14.2 15.32C18.06 16.48 20.88 17.92 22.64 19.64C24.41 21.36 25.29 23.5 25.29 26.07C25.29 28.92 24.21 31.16 22.05 32.78C19.89 34.4 16.99 35.21 13.33 35.21C10.79 35.21 8.49 34.75 6.4 33.82C4.32 32.89 2.73 31.62 1.64 30.01C0.55 28.4 0 26.53 0 24.4H6.81C6.81 28.04 8.98 29.86 13.33 29.86C14.94 29.86 16.2 29.53 17.11 28.88C18.02 28.22 18.47 27.3 18.47 26.12Z" fill="black"/>
<path d="M37.28 4.26001V10.28H41.47V15.08H37.28V27.3C37.28 28.21 37.45 28.85 37.8 29.25C38.15 29.64 38.81 29.84 39.79 29.84C40.51 29.84 41.15 29.79 41.71 29.68V34.64C40.43 35.03 39.11 35.23 37.75 35.23C33.16 35.23 30.82 32.91 30.73 28.28V15.08H27.15V10.28H30.73V4.26001H37.28Z" fill="black"/>
<path d="M59.31 34.77C59.01 34.18 58.79 33.45 58.65 32.57C57.06 34.34 55.01 35.22 52.47 35.22C50.07 35.22 48.08 34.53 46.51 33.14C44.93 31.75 44.15 30 44.15 27.89C44.15 25.29 45.11 23.3 47.04 21.91C48.96 20.52 51.74 19.82 55.38 19.8H58.39V18.4C58.39 17.27 58.1 16.36 57.52 15.68C56.94 15 56.02 14.66 54.77 14.66C53.67 14.66 52.8 14.92 52.18 15.45C51.55 15.98 51.24 16.7 51.24 17.62H44.7C44.7 16.2 45.14 14.89 46.01 13.68C46.89 12.47 48.12 11.53 49.72 10.84C51.32 10.15 53.12 9.81 55.11 9.81C58.13 9.81 60.52 10.57 62.3 12.09C64.07 13.61 64.96 15.74 64.96 18.48V29.1C64.97 31.42 65.3 33.18 65.93 34.37V34.76H59.31V34.77ZM53.9 30.22C54.87 30.22 55.76 30 56.57 29.57C57.39 29.14 57.99 28.56 58.38 27.84V23.63H55.94C52.66 23.63 50.92 24.76 50.71 27.03L50.69 27.42C50.69 28.23 50.98 28.91 51.55 29.43C52.12 29.96 52.9 30.22 53.9 30.22Z" fill="black"/>
<path d="M78.87 24.95L76.52 27.3V34.77H69.98V0H76.52V19.26L77.79 17.63L84.06 10.27H91.92L83.07 20.48L92.69 34.76H85.18L78.87 24.95Z" fill="black"/>
<path d="M105.55 35.22C101.96 35.22 99.03 34.12 96.78 31.91C94.52 29.71 93.4 26.77 93.4 23.1V22.47C93.4 20.01 93.88 17.81 94.83 15.87C95.78 13.93 97.13 12.44 98.87 11.39C100.61 10.34 102.6 9.82001 104.83 9.82001C108.18 9.82001 110.82 10.88 112.74 12.99C114.66 15.1 115.63 18.1 115.63 21.98V24.65H100.03C100.24 26.25 100.88 27.53 101.94 28.5C103 29.47 104.35 29.95 105.98 29.95C108.5 29.95 110.47 29.04 111.89 27.21L115.1 30.81C114.12 32.2 112.79 33.28 111.12 34.06C109.45 34.83 107.59 35.22 105.55 35.22ZM104.81 15.1C103.51 15.1 102.46 15.54 101.65 16.42C100.84 17.3 100.33 18.56 100.1 20.19H109.2V19.67C109.17 18.21 108.78 17.09 108.02 16.29C107.27 15.5 106.2 15.1 104.81 15.1Z" fill="black"/>
<path d="M125.47 10.28L125.67 13.02C127.41 10.89 129.75 9.83002 132.71 9.83002C135.86 9.83002 138.03 11.07 139.21 13.57C140.93 11.08 143.38 9.83002 146.57 9.83002C149.23 9.83002 151.2 10.6 152.5 12.15C153.8 13.7 154.45 16.02 154.45 19.13V34.77H147.88V19.15C147.88 17.76 147.61 16.75 147.07 16.11C146.53 15.47 145.57 15.15 144.19 15.15C142.23 15.15 140.87 16.09 140.12 17.96L140.14 34.78H133.6V19.18C133.6 17.76 133.32 16.74 132.76 16.1C132.2 15.47 131.25 15.15 129.91 15.15C128.05 15.15 126.71 15.92 125.88 17.46V34.78H119.34V10.28H125.47Z" fill="#0FD17A"/>
<path d="M159.43 3.94001C159.43 2.96001 159.76 2.15001 160.41 1.52001C161.07 0.890007 161.96 0.570007 163.09 0.570007C164.21 0.570007 165.1 0.890007 165.76 1.52001C166.42 2.15001 166.76 2.96001 166.76 3.94001C166.76 4.94001 166.42 5.75001 165.75 6.38001C165.08 7.01001 164.19 7.33001 163.09 7.33001C161.99 7.33001 161.1 7.01001 160.43 6.38001C159.77 5.75001 159.43 4.94001 159.43 3.94001ZM166.38 34.77H159.81V10.28H166.38V34.77Z" fill="#0FD17A"/>
<path d="M177.79 10.28L177.99 13.11C179.74 10.92 182.09 9.83002 185.03 9.83002C187.63 9.83002 189.56 10.59 190.82 12.12C192.09 13.64 192.74 15.92 192.77 18.96V34.78H186.23V19.11C186.23 17.72 185.93 16.71 185.33 16.09C184.73 15.46 183.72 15.15 182.32 15.15C180.48 15.15 179.1 15.93 178.18 17.5V34.77H171.64V10.28H177.79Z" fill="#0FD17A"/>
<path d="M205.56 4.26001V10.28H209.75V15.08H205.56V27.3C205.56 28.21 205.73 28.85 206.08 29.25C206.43 29.64 207.09 29.84 208.07 29.84C208.79 29.84 209.43 29.79 209.99 29.68V34.64C208.71 35.03 207.39 35.23 206.03 35.23C201.44 35.23 199.1 32.91 199.01 28.28V15.08H195.43V10.28H199.01V4.26001H205.56Z" fill="#0FD17A"/>
</svg>
